<svg version="1.1" viewBox="0.0 0.0 700.0 200.0" fill="none" stroke="none" stroke-linecap="square" stroke-miterlimit="10" xmlns:xlink="http://www.w3.org/1999/xlink" xmlns="http://www.w3.org/2000/svg"><clipPath id="p.0"><path d="m0 0l700.0 0l0 200.0l-700.0 0l0 -200.0z" clip-rule="nonzero"/></clipPath><g clip-path="url(#p.0)"><path fill="#000000" fill-opacity="0.0" d="m0 0l700.0 0l0 200.0l-700.0 0z" fill-rule="evenodd"/><path fill="#000000" fill-opacity="0.0" d="m0.77165353 -0.38582677l699.2441 0l0 200.37796l-699.2441 0z" fill-rule="evenodd"/><path fill="#000000" d="m95.85219 42.81791q19.328125 0 30.984375 8.96875q11.671875 8.96875 11.671875 25.375l-22.671875 0q-0.515625 -8.015625 -5.484375 -12.0625q-4.953125 -4.046875 -15.453125 -4.046875q-7.140625 0 -11.703125 3.140625q-4.546875 3.125 -4.546875 8.96875q0 4.0 1.890625 5.96875q1.890625 1.96875 7.765625 4.125q5.875 2.140625 25.625 6.8125q13.265625 3.203125 20.703125 10.859375q7.4375 7.65625 7.4375 19.40625q0 15.453117 -11.59375 24.828117q-11.578125 9.359375 -32.65625 9.359375q-20.125 0 -32.8125 -9.90625q-12.6875 -9.921875 -12.6875 -27.421867l0 -0.578125l22.671875 0q0.15625 9.90625 6.640625 14.796867q6.484375 4.890625 16.984375 4.890625q9.484375 0 15.125 -3.46875q5.65625 -3.46875 5.65625 -9.812492q0 -5.171875 -4.34375 -8.484375q-4.328125 -3.328125 -13.875 -5.734375q-12.25 -2.765625 -22.25 -5.859375q-9.984375 -3.109375 -16.515625 -10.0625q-6.515625 -6.96875 -6.515625 -17.828125q0 -14.359375 11.484375 -23.296875q11.484375 -8.9375 28.46875 -8.9375zm83.63725 2.5625l0 44.171875l41.625 -44.171875l29.3125 0l-41.703125 42.0625l45.71875 64.53124l-29.46875 0l-32.078125 -47.906242l-13.40625 13.5625l0 34.343742l-23.484375 0l0 -106.59374l23.484375 0zm164.12128 0l0 19.6875l-56.28125 0l0 22.8125l51.609375 0l0 18.234375l-51.609375 0l0 26.171867l57.453125 0l0 19.6875l-80.9375 0l0 -106.59374l79.765625 0zm40.31955 0l44.484375 71.515625l0.28125 0l0 -71.515625l21.953125 0l0 106.59374l-23.40625 0l-44.40625 -71.39062l-0.28125 0l0 71.39062l-21.953125 0l0 -106.59374l23.328125 0zm140.51181 0l39.875 106.51562l-24.34375 0l-8.015625 -23.6875l-39.890656 0l-8.390625 23.765625l-23.6875 0l40.46875 -106.59374l23.984406 0zm-12.390686 26.25l-13.8593445 39.140625l27.640656 0l-13.421936 -39.140625l-0.359375 0zm68.824646 -26.25l23.765625 74.953125l0.296875 0l24.0625 -74.953125l24.203125 0l-35.4375 106.59374l-26.390625 0l-34.640625 -106.59374l24.140625 0z" fill-rule="nonzero"/></g></svg>